<svg xmlns="http://www.w3.org/2000/svg" width="49.955" height="49.956" viewBox="0 0 49.955 49.956"><path fill="none" d="M3.521 16.71a.273.273 0 0 0 0-.382.268.268 0 0 0-.38.001.263.263 0 0 0-.078.189c0 .072.028.14.079.19a.272.272 0 0 0 .379.002zM21.65 7.439a.273.273 0 0 0 0-.382.271.271 0 0 0-.46.193c0 .072.028.139.078.189.103.102.28.102.382 0zM16.141 10.129a.29.29 0 0 0 .172.001.327.327 0 0 0-.083-.645.331.331 0 0 0-.329.328.33.33 0 0 0 .24.316zM40.34 36.417V18.491h-8.797v6.219c.095-.095.199-.179.321-.24a.131.131 0 0 0-.01-.006c.737-.667.738-2.979.738-2.979 0-1.204.836-2.185 1.862-2.185 1.003 0 1.817.937 1.855 2.102h.004s.096 2.396.834 3.062l-.017.008c.404.206.676.613.676 1.074v.86h-6.265V30h1.195v2.035h-1.195v.775h1.195v2.035h-2.037v-1.527h-1.143v3.1H40.34zm-4.791-1.572h-2.036V32.81h2.036v2.035zm0-2.81h-2.036V30h2.036v2.035zm2.812 2.81h-2.036V32.81h2.036v2.035zm0-4.845v2.035h-2.036V30h2.036zm-5.623-2.786h3.587v.58h-3.587v-.58zm-1.009 1.657v-.582h5.605v.582h-5.605zM2.049 25.775a.29.29 0 0 0 .081-.012.327.327 0 0 0 .234-.406.328.328 0 1 0-.315.418zM46.053 16.089a.269.269 0 1 0-.379-.001.273.273 0 0 0 .379.001z"/><path fill="none" d="M34.455 23.164c.749 0 1.358-.753 1.358-1.68 0-.206-.034-.401-.089-.584-1.115-1.038-2.057-.469-2.534-.017a2.027 2.027 0 0 0-.093.601c.001.927.609 1.68 1.358 1.68zM35.922 12.055c.102.102.28.102.38.001a.269.269 0 0 0-.189-.46.269.269 0 0 0-.191.459zM4.86 37.632a.268.268 0 0 0-.191.458.276.276 0 0 0 .38.002.273.273 0 0 0 0-.383.269.269 0 0 0-.189-.077zM16.442 24.175v-.692a1.589 1.589 0 0 1-.593.124 1.57 1.57 0 0 1-.512-.095v.663l-1.78.638a.717.717 0 0 0-.475.673v.354h5.415v-.837a.702.702 0 0 0-.274-.19l-1.781-.638zM46.861 31.632a.268.268 0 0 0-.19.458c.102.101.28.103.38.002a.269.269 0 0 0 0-.382.266.266 0 0 0-.19-.078zM17.056 21.538c-.403 0-.72-.157-.979-.479a1.897 1.897 0 0 1-1.192.455c-.137 0-.265-.016-.389-.046.02.906.619 1.635 1.354 1.635.722 0 1.308-.7 1.351-1.58-.05.004-.099.015-.145.015zM31.404 42.164a.267.267 0 0 0-.19.457c.102.102.28.104.38.002a.268.268 0 0 0-.19-.459zM15.872 20.524l.214-.409.229.401c.235.411.477.552.851.504-.147-.73-.68-1.276-1.315-1.276-.616 0-1.133.514-1.297 1.212.103.032.21.055.331.055.384-.001.855-.233.987-.487zM11.258 42.548a.77.77 0 0 0-.551.228.772.772 0 0 0 0 1.094.793.793 0 0 0 1.096.002.776.776 0 0 0-.545-1.324zM42.764 26.054a.332.332 0 0 0-.33.328.33.33 0 0 0 .658 0 .328.328 0 0 0-.328-.328z"/><path fill="none" d="M19.62 34.845h-2.037V32.81h.915v-.775h-.915V30h.915v-1.129h-5.511v-.582h5.511v-1.943h-5.92v-.859c0-.514.325-.975.81-1.147l1.445-.518v-.572c-.508-.392-.846-1.062-.846-1.826 0-1.205.836-2.185 1.862-2.185s1.862.979 1.862 2.185c0 .723-.303 1.358-.765 1.756v.642l1.446.518c.038.014.068.04.104.058v-5.905h-7.681V36.42h10.781v-3.1H19.62v1.525zm-5.624-7.631h3.587v.58h-3.587v-.58zm0 7.631H11.96V32.81h2.036v2.035zm0-2.81H11.96V30h2.036v2.035zm2.812 2.81h-2.037V32.81h2.037v2.035zm0-2.81h-2.037V30h2.037v2.035zM19.775 45.363a.331.331 0 0 0-.33.33.328.328 0 1 0 .646-.09.327.327 0 0 0-.316-.24zM36.828 24.873l-.28-.1c-.552.264-1.38.598-2.052.632v.009c-.016 0-.033-.004-.049-.004-.015 0-.033.004-.048.004v-.01c-.665-.033-1.448-.362-1.971-.626l-.267.095a.722.722 0 0 0-.475.673v.355h5.615v-.355a.714.714 0 0 0-.473-.673z"/><path fill="#EEF0F0" d="M21.459 8.019c.206 0 .399-.08.545-.226a.773.773 0 0 0-.001-1.088.787.787 0 0 0-1.087.001.765.765 0 0 0-.001 1.087.768.768 0 0 0 .544.226zm-.189-.96a.269.269 0 1 1 .38.381.277.277 0 0 1-.382 0 .267.267 0 0 1 .002-.381zM29.628 8.7l.354-.353.486.486-.354.354z"/><path fill="#EEF0F0" d="M30.468 9.54l-.497.497-.354-.354.497-.497zM31.308 9.673l-.487-.486.487-.487-.354-.353-.497.497.354.354-.343.342.486.486zM24.421 2.68c.277.278.634.185.894.118.232-.059.348-.08.415-.013.068.068.048.184-.013.415-.067.26-.16.616.118.894s.633.186.896.119c.232-.059.349-.08.416-.011.068.069.048.185-.012.416-.067.26-.159.616.119.895a.25.25 0 0 0 .354-.354c-.068-.069-.048-.185.012-.417.067-.26.159-.616-.119-.895-.279-.28-.635-.187-.895-.119-.23.059-.348.08-.417.011-.068-.068-.048-.184.013-.415.067-.26.16-.616-.118-.894-.28-.279-.635-.186-.894-.118-.23.06-.346.081-.415.013-.067-.067-.046-.183.015-.412.068-.259.162-.615-.115-.892a.25.25 0 0 0-.354.354c.067.067.046.182-.015.412-.069.26-.162.616.115.893zM28.757 46.463c-.281-.28-.638-.188-.895-.12-.232.061-.348.08-.417.011-.068-.068-.048-.185.013-.415.067-.26.16-.615-.118-.895-.278-.275-.634-.183-.894-.116-.229.06-.347.081-.414.014s-.046-.183.015-.412c.067-.26.161-.615-.116-.893a.25.25 0 1 0-.354.354c.067.067.046.183-.015.412-.068.26-.161.615.116.894.278.274.634.183.894.116.229-.061.346-.082.414-.014s.048.185-.013.415c-.067.26-.16.615.118.894.28.28.637.187.895.12.23-.059.35-.079.417-.011.068.068.048.185-.012.415-.067.26-.159.616.119.896a.25.25 0 0 0 .354-.354c-.068-.069-.048-.186.012-.417.067-.26.159-.616-.119-.894zM30.86 41.889c-.145.145-.225.337-.225.543s.08.398.225.543a.765.765 0 0 0 1.087.002.764.764 0 0 0 0-1.088.786.786 0 0 0-1.087 0zm.734.735c-.1.102-.278.1-.38-.002-.051-.051-.078-.117-.078-.189s.027-.139.078-.189.118-.079.19-.079c.071 0 .139.028.189.079s.079.119.079.19-.027.139-.078.19zM18.208 39.877l.353-.353.487.486-.354.354zM18.197 40.862l.498-.499.354.354-.498.498z"/><path fill="#EEF0F0" d="M19.888 40.85l-.486-.486.486-.487-.354-.353-.497.498.353.353-.342.342.486.487z"/><path fill="#DBE9E9" d="M5.474 31.332a.5.5 0 0 0-.5-.5l-2.614.002a.5.5 0 0 0 0 1l2.614-.002a.5.5 0 0 0 .5-.5zM47.592 20.468l-2.613.002a.5.5 0 0 0 0 1l2.613-.002a.5.5 0 0 0 0-1z"/><circle fill="#DBE9E9" cx="6.387" cy="31.333" r=".509"/><circle fill="#DBE9E9" cx="43.564" cy="20.97" r=".509"/><path fill="#EEF0F0" d="M37.273 42.946l-.73-.728.354-.354.73.728zM38.143 42.963l-.353-.354.744-.745.354.354zM36.883 44.222l-.354-.354.746-.746.354.354zM38.535 44.201l-.73-.73.355-.353.729.73zM41.102 9.862l.354-.354.486.486-.354.354zM41.94 10.702l-.496.497-.354-.353.497-.498zM42.782 10.833l-.486-.486.486-.486-.353-.353-.497.497.353.353-.343.343.487.486zM13.892 4.987l.497-.497-.354-.353-.486.486-.486-.486-.353.353.486.487.343-.343z"/><path fill="#EEF0F0" d="M13.55 5.33l-.498.497-.354-.354.499-.497zM13.904 4.977l.486.486-.354.354-.486-.486zM43.917 36.038l.353-.354.486.486-.354.354zM45.243 35.684l-.497.498.354.354-.343.341.486.487.354-.354-.486-.486.486-.486zM44.26 37.375l-.354-.353.498-.498.353.354zM10.354 42.422c-.24.239-.373.56-.373.899 0 .341.132.66.373.901a1.27 1.27 0 0 0 1.803.002 1.27 1.27 0 0 0 0-1.804c-.481-.481-1.321-.479-1.803.002zm1.449 1.45a.793.793 0 0 1-1.096-.002.77.77 0 0 1-.226-.548.775.775 0 1 1 1.322.55zM3.333 17.288c.205 0 .397-.08.543-.225a.773.773 0 0 0-.001-1.088.788.788 0 0 0-1.087.001.762.762 0 0 0-.225.543c0 .206.08.399.226.543a.76.76 0 0 0 .544.226zm-.192-.958a.268.268 0 0 1 .38-.001.271.271 0 0 1 0 .382.273.273 0 0 1-.38-.002.265.265 0 0 1-.079-.19c0-.072.028-.139.079-.189zM46.316 31.358a.77.77 0 1 0 1.088-.002.791.791 0 0 0-1.088.002zm.735.734a.276.276 0 0 1-.38-.002.269.269 0 1 1 .19-.458.269.269 0 0 1 .268.268.268.268 0 0 1-.078.192z"/><path fill="#E9D8E0" d="M42.768 25.433c-.312 0-.59.15-.762.383a.964.964 0 0 0-.177.501v.112c.007.13.031.256.085.368v.002l.632 1.627.001.002c.028.084.105.15.2.156.007 0 .013.004.02.002.005 0 .009 0 .015-.002a.228.228 0 0 0 .206-.156l.001-.002.633-1.627v-.002a.944.944 0 0 0-.078-.961.947.947 0 0 0-.776-.403zm.078 1.268a.298.298 0 0 1-.172-.002.328.328 0 1 1 .172.002zM2.032 27.646l.021.002c.004 0 .008 0 .013-.002a.229.229 0 0 0 .207-.156l.001-.002.633-1.628v-.001a.94.94 0 0 0-.078-.961.94.94 0 0 0-.775-.402c-.312 0-.59.15-.762.383a.943.943 0 0 0-.092.98v.002l.632 1.627.001.002a.23.23 0 0 0 .199.156zm-.313-2.201a.33.33 0 0 1 .329-.328.33.33 0 0 1 .329.327.327.327 0 0 1-.247.319.29.29 0 0 1-.171-.002.33.33 0 0 1-.24-.316zM15.38 10.229l.633 1.627.001.001a.231.231 0 0 0 .201.156l.019.002c.005 0 .009 0 .015-.002a.23.23 0 0 0 .207-.156v-.002l.633-1.627v-.002a.944.944 0 0 0-.078-.961.945.945 0 0 0-.775-.402.953.953 0 0 0-.95.95.958.958 0 0 0 .097.414l-.003.002zm.534-.513a.331.331 0 0 1 .315-.232.328.328 0 0 1 .083.645.29.29 0 0 1-.172-.001.33.33 0 0 1-.226-.412z"/><path fill="#EEF0F0" d="M8.561 12.922c-.278-.278-.634-.186-.895-.119-.231.061-.348.08-.417.011-.068-.068-.047-.185.013-.415.067-.26.16-.616-.118-.894-.276-.277-.634-.186-.894-.118-.23.061-.346.082-.414.013-.067-.067-.046-.183.014-.412.068-.259.162-.615-.116-.892a.25.25 0 1 0-.354.354c.067.067.046.183-.014.412-.068.259-.162.615.116.892s.633.186.894.118c.229-.06.345-.082.414-.013.068.068.047.185-.013.415-.067.26-.16.616.118.894.278.279.636.186.896.119.231-.059.348-.08.416-.011.069.069.048.185-.012.416-.067.26-.159.616.119.895a.249.249 0 0 0 .354 0 .25.25 0 0 0 0-.354c-.069-.069-.048-.185.012-.417.067-.26.159-.616-.119-.894zM35.567 11.322a.77.77 0 1 0 1.314.544.764.764 0 0 0-.226-.544.79.79 0 0 0-1.088 0zm.735.353a.268.268 0 0 1 0 .381c-.1.101-.278.1-.38-.001a.269.269 0 1 1 .38-.38z"/><path fill="#DBE9E9" d="M34.283 5.332l2.613-.002a.5.5 0 0 0 0-1l-2.613.002a.5.5 0 0 0 0 1z"/><circle fill="#DBE9E9" cx="32.869" cy="4.831" r=".508"/><path fill="#E9D8E0" d="M20.555 45.144a.95.95 0 0 0-1.725.549.945.945 0 0 0 .098.414h-.002l.634 1.629c.029.086.105.15.201.158h.033a.236.236 0 0 0 .208-.158l.634-1.629h-.002a.93.93 0 0 0 .097-.414.965.965 0 0 0-.176-.549zm-.698.867a.33.33 0 1 1-.168-.64.33.33 0 0 1 .168.64z"/><path fill="#B35D88" d="M37.808 25.545c0-.461-.271-.868-.676-1.074l.017-.008c-.738-.667-.834-3.062-.834-3.062h-.004c-.038-1.165-.853-2.102-1.855-2.102-1.026 0-1.862.98-1.862 2.185 0 0-.001 2.312-.738 2.979l.01.006a1.27 1.27 0 0 0-.321.24v1.696h6.265v-.86zm-4.618-4.662c.478-.452 1.419-1.021 2.534.017.055.183.089.378.089.584 0 .927-.609 1.68-1.358 1.68s-1.357-.753-1.357-1.68c0-.212.035-.414.092-.601zm4.113 5.018h-5.615v-.355c0-.3.192-.57.475-.673l.267-.095c.522.264 1.306.593 1.971.626v.01c.015 0 .033-.004.048-.004.016 0 .033.004.049.004v-.009c.672-.034 1.5-.368 2.052-.632l.28.1a.72.72 0 0 1 .475.673v.355z"/><path fill="#E6E6E6" d="M31.543 30h1.195v2.035h-1.195zM33.513 30h2.036v2.035h-2.036zM36.325 30h2.036v2.035h-2.036zM32.738 27.214h3.587v.58h-3.587zM32.738 34.845V32.81h-1.195v.508h-.842v1.527zM33.513 32.81h2.036v2.035h-2.036zM36.325 32.81h2.036v2.035h-2.036z"/><path fill="#F0F0F0" d="M41.829 17.715h-.713v19.48H28.783v.773h13.046V26.317z"/><path fill="#F0F0F0" d="M28.846 33.318h.713v3.1h-.713zM31.543 17.715h8.797v.775h-8.797z"/><path d="M41.054 37.195h.062V16.94h-9.573v-3.876H18.498v3.876H9.329v20.254H22.373v-3.877h5.698v3.877h12.983zm-19.455-.778H10.103V17.715h8.395V33.318h3.101v3.099zm-2.326-3.875V13.84h11.495v18.703H19.273zm9.573.776h2.698V17.716h8.797V36.418H28.846v-3.1z"/><path fill="#E6E6E6" d="M31.729 28.289h5.605v.582h-5.605z"/><path fill="#219597" d="M16.947 23.821v-.642c.462-.397.765-1.033.765-1.756 0-1.205-.836-2.185-1.862-2.185s-1.862.979-1.862 2.185c0 .764.338 1.435.846 1.826v.571l-1.445.518c-.484.173-.81.634-.81 1.147v.859h5.92v-.504h-5.415v-.354c0-.301.19-.571.475-.673l1.78-.638v-.663c.163.056.333.095.512.095.208 0 .406-.049.593-.124v.692l1.781.638a.702.702 0 0 1 .274.19v-.607c-.036-.018-.066-.044-.104-.058l-1.448-.517zm-1.097-4.077c.636 0 1.168.546 1.315 1.276-.374.048-.615-.093-.851-.504l-.229-.401-.214.409c-.132.254-.604.486-.988.486-.121 0-.229-.022-.331-.055.165-.698.681-1.211 1.298-1.211zm0 3.359c-.735 0-1.335-.729-1.354-1.635.124.03.252.046.389.046.426 0 .892-.188 1.192-.455.26.321.576.479.979.479.046 0 .096-.011.145-.015-.044.88-.63 1.58-1.351 1.58z"/><path fill="#E6E6E6" d="M11.96 30h2.036v2.035H11.96zM14.771 30h2.037v2.035h-2.037zM17.583 30h.915v2.035h-.915zM13.996 27.214h3.587v.58h-3.587zM11.96 32.81h2.036v2.035H11.96zM14.771 32.81h2.037v2.035h-2.037zM17.583 34.845h2.037v-1.527h-1.122v-.508h-.915z"/><path fill="#F0F0F0" d="M18.498 18.491v-.776h-8.394v18.702h.713V18.491zM22.373 37.195H10.041v.773h13.045v-4.65h-.713z"/><path fill="#E6E6E6" d="M12.987 28.289h5.511v.582h-5.511z"/><path fill="#FFF" d="M26.295 17.042c-1.612-.707-2.448.313-2.628.571.028.896.621 1.615 1.352 1.615.749 0 1.358-.755 1.358-1.682 0-.175-.028-.341-.068-.5a.074.074 0 0 1-.014-.004zM25.611 20.125v-.515a1.613 1.613 0 0 1-.593.124c-.179 0-.348-.039-.512-.095v.485a.251.251 0 0 1-.168.237l-1.613.576a.721.721 0 0 0-.475.674v.354h5.615v-.354a.719.719 0 0 0-.475-.674l-1.612-.576a.25.25 0 0 1-.167-.236zM26.688 15.529c-.224.047-.382.225-.476.356a2.2 2.2 0 0 1 .507.78c.475.181 1.024.303 1.347.048.151-.12.238-.311.285-.516-.378.077-.788-.269-.933-.392-.269-.229-.517-.316-.73-.276zM26.012 16.409c-.248-.331-.6-.542-.993-.542-.516 0-.96.361-1.189.887.466-.339 1.192-.624 2.182-.345z"/><path fill="#FFF" d="M30.769 13.84H19.273v18.703h11.495V13.84zm-7.603 17.128h-2.037v-2.035h2.037v2.035zm0-2.808h-2.037v-2.036h2.037v2.036zm4.596-3.747v.581h-5.604v-.581h5.604zm-4.596-.495v-.581h3.587v.581h-3.587zm2.812 7.05H23.94v-2.035h2.037v2.035zm0-2.808H23.94v-2.036h2.037v2.036zm2.81 2.808h-2.035v-2.035h2.035v2.035zm0-2.808h-2.035v-2.036h2.035v2.036zm-.408-11.053c-.356.286-.873.324-1.525.134.013.101.026.201.026.306 0 .722-.304 1.358-.765 1.757v.643l1.445.518c.483.172.809.634.809 1.147v.606c0 .14-.113.252-.252.252H22a.25.25 0 0 1-.252-.252v-.606c0-.514.323-.976.808-1.147l1.446-.518v-.572c-.508-.391-.846-1.062-.846-1.827 0-1.204.836-2.184 1.862-2.184.286 0 .554.082.796.218.146-.201.393-.465.77-.545.379-.082.77.051 1.162.387.322.275.479.293.513.278.064-.032.111-.263.104-.423a.25.25 0 0 1 .222-.263.257.257 0 0 1 .276.205c.009.053.235 1.32-.481 1.886z"/><path fill="#A23B72" d="M28.584 15.016a.252.252 0 0 0-.222.263c.008.16-.039.391-.104.423-.033.015-.19-.003-.513-.278-.393-.336-.783-.469-1.162-.387-.377.08-.624.344-.77.545a1.617 1.617 0 0 0-.796-.218c-1.026 0-1.862.979-1.862 2.184 0 .765.338 1.437.846 1.827v.572l-1.446.518a1.22 1.22 0 0 0-.808 1.147v.606c0 .14.111.252.252.252h6.118a.252.252 0 0 0 .252-.252v-.606c0-.514-.325-.976-.809-1.147l-1.445-.518v-.643c.461-.398.765-1.035.765-1.757 0-.104-.014-.205-.026-.306.652.19 1.169.151 1.525-.134.716-.567.49-1.833.48-1.887a.255.255 0 0 0-.275-.204zm-3.565.852c.394 0 .745.21.993.542-.989-.279-1.716.005-2.183.345.23-.526.674-.887 1.19-.887zm2.373 5.07a.72.72 0 0 1 .475.674v.354h-5.615v-.354a.72.72 0 0 1 .475-.674l1.613-.576c.1-.035.168-.13.168-.237v-.485c.164.056.333.095.512.095.208 0 .405-.05.593-.124v.515a.25.25 0 0 0 .168.237l1.611.575zm-2.373-1.709c-.73 0-1.323-.72-1.352-1.615.18-.258 1.016-1.278 2.628-.571l.014.005c.04.159.068.325.068.5 0 .926-.609 1.681-1.358 1.681zm3.047-2.515c-.322.255-.872.133-1.347-.048a2.19 2.19 0 0 0-.507-.78c.094-.131.252-.309.476-.356.213-.041.461.047.73.277.145.123.555.468.933.392-.046.204-.133.395-.285.515z"/><path fill="#E6E6E6" d="M21.129 26.124h2.037v2.036h-2.037zM23.94 26.124h2.037v2.036H23.94zM26.753 26.124h2.035v2.036h-2.035zM23.166 23.337h3.587v.581h-3.587zM21.129 28.933h2.037v2.035h-2.037zM23.94 28.933h2.037v2.035H23.94zM26.753 28.933h2.035v2.035h-2.035zM22.157 24.413h5.604v.581h-5.604z"/><path fill="#EEF0F0" d="M4.314 37.358a.77.77 0 0 0 1.088 1.088c.146-.146.226-.339.226-.545s-.08-.399-.226-.545a.787.787 0 0 0-1.088.002zm.735.734a.276.276 0 0 1-.38-.002.268.268 0 0 1 .191-.458.264.264 0 0 1 .268.268.27.27 0 0 1-.079.192zM45.864 16.667a.768.768 0 0 0 .542-1.312.79.79 0 0 0-1.088.001.768.768 0 0 0 .546 1.311zm-.192-.958a.269.269 0 1 1 .38.38.274.274 0 0 1-.38-.001.27.27 0 0 1 0-.379z"/></svg>
