<svg xmlns="http://www.w3.org/2000/svg" width="49.955" height="49.957" viewBox="0 0 49.955 49.957"><path fill="none" d="M9.791 20.129l-3.193 3.195 4.092 4.25-.3-.771.002-.005a1.72 1.72 0 0 1-.175-.75c0-.947.769-1.715 1.716-1.715h.001c.58 0 1.095.285 1.405.729.082.115.14.247.191.38l.895-1.009-4.634-4.304zm5.813 5.4l-2.9 3.27-.241.617 3.064 3.184 2.128-2.129a9.161 9.161 0 0 1-2.046-4.934l-.005-.008zm-1.599-9.612l-3.645 3.644 4.6 4.272.762-.86a9.15 9.15 0 0 1 1.604-3.734l-3.321-3.322zm16.264 31.222h.484v.5h-.484v-.5zm5.664-25.974a1.748 1.748 0 0 1-.176-.748c0-.314.102-.6.25-.854l-2.584-2.583-1.669 1.669c.19.221.369.452.538.691a9.153 9.153 0 0 1 2.277 5.252l1.979-1.825-.62-1.597.005-.005zm-5.754 10.924l-.013-.012c-.3.221-.612.424-.938.606.332-.174.647-.374.951-.594zm7.695-7.971a.414.414 0 0 1-.375.281c-.009.004-.018.004-.025.004-.012 0-.022-.004-.035-.004a.4.4 0 0 1-.201-.079l-2.651 2.442 4.252 3.766 4.067-4.066-3.829-3.833-.97.891-.229.595-.004.003zm-7.073 7.458l.011.012c.342-.301.664-.625.951-.979a9.148 9.148 0 0 1-.962.967zM6.268 36.139h.484v.5h-.484v-.5z"/><circle fill="none" cx="33.745" cy="8.214" r=".269"/><circle fill="none" cx="22.86" cy="2.076" r=".269"/><path fill="none" d="M30.509 2.763h.484v.5h-.484v-.5z"/><circle fill="none" cx="15.37" cy="3.95" r=".269"/><path fill="none" d="M38.062 20.417a.597.597 0 0 0-.594-.594c-.019 0-.035.007-.054.009l.64.639c.002-.019.008-.035.008-.054zm-16.009-4.582l4.807-5.419-3.678-3.678-8.609 8.609 3.256 3.256a9.25 9.25 0 0 1 4.224-2.768zm16.442-.131h.484v.5h-.484v-.5zm-7.889 1.814l1.679-1.677-4.286-4.286-3.441 3.881c.072-.001.142-.011.214-.011a9.152 9.152 0 0 1 5.834 2.093zm6.7 3.471a.72.72 0 0 0 .151.024l-.585-.585a.598.598 0 0 0 .434.561zM25.014 35.576l-3.508 3.229 4.44 4.612 3.357-3.356-.129-.326-4.16-4.159z"/><circle fill="none" cx="34.274" cy="41.607" r=".27"/><path fill="none" d="M29.705 37.376a.528.528 0 0 0 .31.004.591.591 0 0 0 .43-.716l-.006-.018a.596.596 0 1 0-1.168.158c0 .274.184.503.434.572zm1.814-5.084l2.776 2.774 3.972-3.971-3.93-3.479a9.188 9.188 0 0 1-2.818 4.676zm15.269-5.653h.484v.5h-.484v-.5z"/><path fill="none" d="M30.892 32.805a9.131 9.131 0 0 1-4.822 1.797l-.463.426 2.847 2.846-.123-.312.002-.004a1.717 1.717 0 0 1 1.541-2.468h.001c.58 0 1.096.285 1.404.729.363.51.416 1.177.141 1.738l.001.004-.246.631 2.554-2.553-2.837-2.834zm-19.126-6.182c.1.031.208.033.309.004a.59.59 0 0 0 .425-.735.597.597 0 0 0-1.169.157.6.6 0 0 0 .435.574zm6.926 5.085l-2.048 2.049 3.744 3.888 3.431-3.154a9.205 9.205 0 0 1-5.127-2.783z"/><circle fill="none" cx="2.021" cy="28.507" r=".776"/><path fill="#EEF0F0" d="M33.745 8.983a.77.77 0 1 0 0-1.54.77.77 0 1 0 0 1.54zm0-1.038a.271.271 0 1 1-.002.542.271.271 0 0 1 .002-.542zm4.047 7.759h.703v.5h-.703v-.5zm1.203 1.187v-.687h.688v-.5h-.688v-.688h-.5v.688h.484v.5h-.484v.687h.5zm-1.141-6.663c.067-.068.184-.048.416.011.125.032.271.07.422.07a.64.64 0 0 0 .473-.189c.277-.278.188-.635.119-.895-.059-.231-.079-.348-.012-.417.069-.069.186-.048.416.012.26.067.615.159.894-.118.276-.278.185-.634.117-.894-.06-.23-.081-.347-.013-.415.066-.067.186-.045.412.014.26.069.611.163.893-.115a.25.25 0 1 0-.354-.354c-.066.066-.183.046-.412-.015-.261-.069-.615-.161-.895.116-.277.278-.188.634-.118.894.062.23.081.346.015.414-.068.069-.186.047-.414-.012-.26-.067-.615-.159-.896.118-.275.281-.186.637-.117.897.059.231.079.348.012.417s-.185.048-.416-.011c-.26-.067-.615-.16-.896.119a.25.25 0 1 0 .348.36l.006-.007zM13.393 39.962c-.065.067-.181.045-.412-.017-.26-.065-.615-.161-.893.117-.277.277-.185.633-.117.894.06.231.081.349.013.416-.069.065-.185.047-.415-.015-.26-.065-.616-.159-.895.119-.278.277-.186.635-.119.896.06.229.08.346.011.416-.067.067-.184.049-.417-.013-.259-.065-.615-.157-.894.119a.25.25 0 1 0 .354.354c.067-.066.183-.049.415.012.125.031.272.07.422.07a.633.633 0 0 0 .474-.189c.278-.279.186-.635.119-.895-.06-.23-.08-.348-.011-.416.068-.068.185-.049.415.012.26.068.616.16.895-.117.277-.276.185-.635.117-.895-.06-.23-.081-.348-.013-.414.067-.066.182-.047.412.016.259.066.616.16.893-.117a.25.25 0 1 0-.349-.359l-.005.006z"/><path fill="#DBE9E9" d="M5.704 15.939a.5.5 0 1 0 .708-.708l-1.85-1.847a.502.502 0 0 0-.708.708l1.85 1.847zm38.322 16.254a.5.5 0 0 0-.706.012l-.001.002a.496.496 0 0 0 0 .693l1.85 1.848c.194.195.51.196.705.002.002 0 .002-.001.003-.002a.5.5 0 0 0 0-.707l-1.851-1.848z"/><circle fill="#DBE9E9" cx="7.058" cy="16.585" r=".509"/><circle fill="#DBE9E9" cx="42.673" cy="31.546" r=".509"/><path fill="#EEF0F0" d="M20.687 45.607h.5v1.031h-.5v-1.031zm.601 1.157h1.055v.5h-1.055v-.5zm-1.781 0h1.055v.5h-1.055v-.5zm1.18.625h.5v1.03h-.5v-1.03zm26.601-20.75v-.687h-.5v.687h.484v.5h-.484v.688h.5v-.688h.688v-.5h-.688z"/><path fill="#EEF0F0" d="M46.085 26.639h.703v.5h-.703v-.5zM30.993 3.263h-.484v.688h.5v-.688h.688v-.5h-.688v-.687h-.5v.687h.484v.5zm-1.187-.5h.703v.5h-.703v-.5zm.963 43.69h-.5v.688h.484v.5h-.484v.688h.5v-.688h.688v-.5h-.688v-.688zm-1.204.686h.703v.5h-.703v-.5zM2.021 27.23a1.273 1.273 0 1 0 .005 2.548 1.273 1.273 0 1 0-.005-2.548zm0 2.055a.776.776 0 1 1 .777-.773.779.779 0 0 1-.699.773h-.078zM15.37 4.719a.77.77 0 1 0-.768-.772v.002a.77.77 0 0 0 .768.77zm0-1.038a.27.27 0 1 1 .033.539h-.033a.27.27 0 0 1 0-.539zm18.904 37.156zm0 1.038a.27.27 0 0 1-.033-.539h.033a.27.27 0 0 1 0 .539zM10.809 10.39c-.231.137-.548.324-.548.717a.25.25 0 0 0 .5 0c0-.098.097-.166.302-.287.231-.137.547-.323.547-.717s-.316-.58-.547-.717c-.206-.121-.302-.189-.302-.287 0-.097.097-.164.301-.285.231-.134.548-.321.548-.714s-.317-.579-.548-.715c-.205-.121-.302-.188-.302-.284 0-.094.096-.161.301-.281.232-.135.549-.32.549-.713a.25.25 0 0 0-.5 0c0 .095-.097.162-.301.281-.231.135-.548.321-.548.712 0 .393.317.579.548.715.205.122.301.189.301.285 0 .097-.097.164-.302.285-.231.136-.548.322-.548.715 0 .394.316.581.548.717.205.121.302.189.302.286s-.096.166-.301.287zm26.087 9.853a.538.538 0 0 0-.024.174l.002.011.585.585.012.001a.59.59 0 0 0 .586-.543l-.642-.639a.597.597 0 0 0-.519.411zm-25.36 9.507l-.001-.004-.845-2.172-4.092-4.25 3.193-3.195 4.634 4.303-.895 1.009c.074.191.124.393.124.607 0 .261-.06.519-.175.75l.001.005-.776 1.993 2.9-3.269.006.007c-.03-.3-.045-.602-.046-.903 0-.568.059-1.121.158-1.661l-.762.86-4.6-4.272 3.645-3.644 3.321 3.322c.159-.219.326-.431.503-.635l-3.256-3.256 8.609-8.609 3.678 3.678-4.807 5.419a9.128 9.128 0 0 1 2.504-.399l3.441-3.881 4.286 4.286-1.678 1.677c.414.342.797.72 1.146 1.13l1.669-1.669 2.584 2.583c.032-.056.051-.12.09-.171.125-.167.285-.302.463-.415l-2.565-2.566 1.422-1.422a.805.805 0 0 0-1.137-1.138l-1.422 1.423-4.318-4.319 1.352-1.523a.805.805 0 1 0-1.203-1.071l-1.289 1.454-3.648-3.643 1.423-1.422a.806.806 0 0 0-1.136-1.138L3.556 24.09a.804.804 0 1 0 1.129 1.145l.008-.008 1.336-1.334 4.621 4.798-1.187 1.336a.805.805 0 0 0 .032 1.104l.035.033a.805.805 0 0 0 1.136-.067l1.019-1.146a.425.425 0 0 1-.149-.201z"/><path fill="#EEF0F0" d="M46.034 24.469a.806.806 0 0 0-1.139 0l-1.422 1.422-3.81-3.809 1.446-1.332a.806.806 0 1 0-1.09-1.184l-.842.774c.002.026.012.05.012.076 0 .268-.062.523-.174.748v.004l-.914 2.35.969-.891 3.83 3.832-4.067 4.068-4.252-3.767 2.651-2.442a.408.408 0 0 1-.159-.202l-.001-.004-.524-1.348-1.979 1.825a9.191 9.191 0 0 0-2.277-5.252 9.163 9.163 0 0 1-.529 11.27c-.289.354-.606.68-.951.979l-.011-.01a9.329 9.329 0 0 1-.635.502l.013.012c-.303.221-.621.42-.951.596a9.186 9.186 0 0 1-11.569-2.217L15.53 32.6l-3.064-3.186-.129.332-.001.004a.418.418 0 0 1-.375.283c-.005.002-.01.002-.015.002l3.014 3.131-1.163 1.164a.808.808 0 0 0 0 1.137.806.806 0 0 0 1.139 0l1.143-1.141 3.721 3.863-1.081.996a.805.805 0 0 0-.047 1.137c.008.008.016.018.023.023a.8.8 0 0 0 1.113.022l1.107-1.021 4.464 4.637-.962.964a.806.806 0 0 0 0 1.139.81.81 0 0 0 1.139 0l20.48-20.479a.804.804 0 0 0-.002-1.138c0 .001 0 0 0 0zM20.388 37.645l-3.744-3.888 2.048-2.049a9.161 9.161 0 0 0 5.126 2.778l-3.43 3.159zm9.886 2.856l-.002.004a.416.416 0 0 1-.375.283c-.008.004-.018.004-.024.004-.013 0-.024-.004-.035-.004a.422.422 0 0 1-.362-.283v-.004l-.172-.44-3.354 3.356-4.441-4.612 3.508-3.229 4.163 4.158-.726-1.861-2.847-2.846.463-.426a9.131 9.131 0 0 0 4.822-1.797l2.836 2.832-2.554 2.553-.9 2.312zm4.021-5.433l-2.776-2.773a9.197 9.197 0 0 0 2.818-4.674l3.93 3.479-3.972 3.968zM22.86 2.845a.77.77 0 1 0-.768-.772v.002a.77.77 0 0 0 .768.77zm0-1.038a.27.27 0 1 1 .033.539h-.033a.27.27 0 0 1 0-.539z"/><path fill="#DBE9E9" d="M45.169 17.926l1.85 1.846a.5.5 0 1 0 .709-.708l-1.851-1.846a.502.502 0 0 0-.708.708z"/><circle fill="#DBE9E9" cx="44.522" cy="16.572" r=".509"/><path fill="#B35D88" d="M31.419 37.555a1.699 1.699 0 0 0-.141-1.738 1.713 1.713 0 1 0-2.947 1.738l-.002.004.122.312.725 1.862.128.326.172.439.002.004c.053.158.194.27.36.283.013 0 .022.004.035.004.009 0 .019 0 .024-.004a.417.417 0 0 0 .375-.283V40.5l.899-2.312.246-.631.002-.002zm-2.123-.923a.597.597 0 1 1 1.167.174.588.588 0 0 1-.445.575.598.598 0 0 1-.722-.749z"/><path fill="#8D99AE" d="M30.606 17.518a9.157 9.157 0 0 0-5.835-2.093c-.072 0-.142.009-.214.011-.869.02-1.71.154-2.504.399a9.228 9.228 0 0 0-4.727 3.404 9.144 9.144 0 0 0-1.604 3.734 9.162 9.162 0 0 0-.158 1.661 9.175 9.175 0 0 0 2.092 5.837 9.192 9.192 0 0 0 11.572 2.215 9.62 9.62 0 0 0 2.537-2.076 9.158 9.158 0 0 0-.011-11.96 9.093 9.093 0 0 0-1.148-1.132zm-5.835 15.321c-4.525 0-8.207-3.682-8.207-8.207 0-4.526 3.682-8.208 8.207-8.208s8.207 3.682 8.207 8.208c.001 4.528-3.681 8.207-8.207 8.207z"/><path fill="#B35D88" d="M12.334 29.75l.001-.004.129-.332.241-.617.776-1.992-.001-.006a1.71 1.71 0 0 0 .175-.75c0-.215-.05-.416-.124-.607a1.651 1.651 0 0 0-.191-.38 1.715 1.715 0 1 0-2.947 1.737l-.002.004.3.771.845 2.172.001.004c.027.08.081.146.148.197a.411.411 0 0 0 .214.086c.011 0 .023.004.035.004.003-.002.006-.002.01-.002.005 0 .01 0 .015-.002a.414.414 0 0 0 .375-.283zm-.978-3.874a.597.597 0 1 1 1.164.172.59.59 0 0 1-.447.576.596.596 0 0 1-.721-.739l.004-.009zm24.741-6.485c-.039.051-.058.116-.09.171-.148.254-.25.541-.25.854 0 .268.064.523.176.748l-.002.004.62 1.597.524 1.348.001.004c.03.083.087.153.159.202.06.044.129.071.203.079.011 0 .021.004.035.004.008 0 .016 0 .023-.004a.414.414 0 0 0 .375-.281l.001-.004.229-.595.914-2.35v-.004c.109-.225.174-.48.174-.748 0-.026-.01-.05-.012-.076a1.715 1.715 0 0 0-.304-.915 1.717 1.717 0 0 0-1.405-.729c-.339 0-.646.108-.914.278-.174.11-.33.252-.457.417zm1.371.432a.595.595 0 0 1 .594.594c0 .019-.008.036-.008.054a.589.589 0 0 1-.586.543l-.011-.001a.606.606 0 0 1-.585-.586l-.002-.011a.59.59 0 0 1 .544-.585c.019-.001.035-.008.054-.008z"/><path fill="#EEF0F0" d="M39.629 38.82c.231-.137.55-.32.55-.715a.25.25 0 1 0-.5 0c0 .098-.098.162-.303.283-.23.135-.548.319-.548.711 0 .395.315.58.548.717.205.119.303.188.303.283s-.098.164-.303.284c-.23.138-.548.322-.548.716 0 .395.315.582.548.717.205.123.303.188.303.287 0 .098-.098.164-.302.285-.231.137-.549.323-.549.717a.25.25 0 1 0 .5 0c0-.099.097-.164.303-.287.229-.135.548-.32.548-.715 0-.394-.316-.58-.549-.717-.205-.121-.302-.188-.302-.287 0-.097.097-.164.302-.283.23-.137.549-.322.549-.717 0-.394-.316-.578-.549-.716-.205-.12-.302-.188-.302-.284 0-.094.097-.16.301-.279zM6.768 35.453h-.5v.688h.484v.5h-.484v.688h.5v-.688h.687v-.5h-.687v-.688zm-1.204.686h.703v.5h-.703v-.5z"/><path fill="#F0F0F0" d="M29.151 28.449l-1.49-1.49c.518-.645.8-1.446.799-2.273a3.647 3.647 0 0 0-3.644-3.644 3.649 3.649 0 0 0-3.645 3.644 3.647 3.647 0 0 0 3.645 3.644c.859 0 1.649-.299 2.272-.799l1.49 1.49a.4.4 0 0 0 .565.006l.006-.006a.402.402 0 0 0 .002-.572zm-7.169-3.763c0-1.562 1.271-2.834 2.834-2.834a2.837 2.837 0 0 1 2.011 4.832l-.01.004-.004.011a2.825 2.825 0 0 1-1.998.823 2.84 2.84 0 0 1-2.833-2.836z"/><path fill="#219597" d="M28.808 27.725l-1.49-1.492a3.611 3.611 0 0 0 .8-2.271 3.647 3.647 0 0 0-3.644-3.644 3.648 3.648 0 0 0-3.645 3.644 3.649 3.649 0 0 0 3.645 3.645 3.63 3.63 0 0 0 2.272-.799l1.49 1.489a.4.4 0 0 0 .565.007l.007-.007a.402.402 0 0 0 0-.572zm-7.169-3.764c0-1.562 1.271-2.834 2.834-2.834s2.834 1.272 2.834 2.834c0 .778-.315 1.484-.824 1.998l-.008.004-.004.01a2.831 2.831 0 0 1-1.999.823 2.838 2.838 0 0 1-2.833-2.835z"/></svg>
