<svg xmlns="http://www.w3.org/2000/svg" width="49.955" height="49.956" viewBox="0 0 49.955 49.956"><circle fill="none" cx="3.681" cy="33.888" r=".269"/><path fill="none" d="M8.396 19.553a.33.33 0 0 0-.33.329.33.33 0 0 0 .412.318.328.328 0 0 0-.082-.647zM2.494 18.266h.5v.484h-.5zM17.435 9.279h.5v.484h-.5z"/><circle fill="none" cx="9.945" cy="14.515" r=".269"/><path fill="none" d="M18.487 31.639h12.592V18.907H18.487v12.732zm5.776-11.186a4.328 4.328 0 0 1 4.329 4.33 4.328 4.328 0 1 1-8.657 0c0-2.39 1.936-4.33 4.328-4.33zM28.56 16.458c0-.271-.25-.489-.558-.489h-5.598c-.309 0-.558.218-.558.489s.249.491.558.491h5.598c.308-.001.558-.22.558-.491z"/><circle fill="none" cx="28.236" cy="47.237" r=".775"/><path fill="none" d="M9.421 40.635a.33.33 0 0 0-.33.328.33.33 0 0 0 .412.318.327.327 0 0 0 .234-.406.33.33 0 0 0-.316-.24z"/><circle fill="none" cx="23.569" cy="7.417" r=".269"/><path fill="none" d="M20.166 14.01h-1.329c-.812 0-1.469.657-1.469 1.468v.979c0-1.349 1.253-2.447 2.798-2.447z"/><circle fill="none" cx="41.855" cy="32.362" r=".269"/><circle fill="none" cx="41.854" cy="23.583" r=".775"/><path fill="none" d="M46.869 18.506h.5v.484h-.5zM26.369 1.987h.5v.484h-.5zM38.785 13.153a.319.319 0 0 0 .171.002.328.328 0 0 0-.082-.647.33.33 0 0 0-.33.329c0 .15.102.277.241.316z"/><circle fill="none" cx="29.262" cy="7.417" r=".775"/><circle fill="none" cx="45.337" cy="13.983" r=".269"/><path fill="none" d="M25.204 34.087a.983.983 0 0 1-.981.978c-.048 0-.088-.021-.134-.027 0 .01-.006.018-.006.027 0 .184.073.346.173.492h1.895a.87.87 0 0 0 .173-.492c-.001-.539-.501-.977-1.12-.978zM36.272 42.417a.33.33 0 0 0-.33.33.33.33 0 0 0 .412.318.33.33 0 0 0-.082-.648z"/><path fill="#EEF0F0" d="M10.714 14.515a.77.77 0 1 0 0 0zm-1.038 0a.27.27 0 0 1 .269-.27.27.27 0 1 1-.269.27zM17.935 9.279v.485h.687v-.5h-.687v-.688h-.5v.688h-.688v.5h.688v-.485zM17.435 9.764h.5v.703h-.5zM13.064 8.939a.25.25 0 0 0-.25-.25c-.097 0-.165-.097-.286-.302-.136-.232-.323-.549-.717-.549-.394 0-.581.317-.717.548-.241.408-.327.414-.571 0-.136-.232-.322-.549-.715-.549s-.58.317-.716.549c-.24.408-.325.412-.564 0-.136-.23-.321-.548-.714-.548a.25.25 0 0 0 0 .5c.095 0 .162.097.281.301.135.232.321.549.713.549.393 0 .579-.317.714-.548.241-.41.327-.412.569 0 .136.232.322.549.715.549.394 0 .581-.317.717-.548.242-.411.331-.412.573 0 .136.231.323.548.716.548a.25.25 0 0 0 .252-.25zM43.836 37.933c-.097 0-.165-.097-.285-.302-.137-.231-.324-.548-.718-.548s-.581.316-.717.548c-.243.409-.329.412-.571 0-.137-.231-.323-.548-.716-.548-.394 0-.579.317-.716.549-.239.405-.323.409-.564 0-.136-.231-.321-.549-.713-.549a.25.25 0 0 0 0 .5c.095 0 .161.097.281.301.136.231.321.549.713.549.393 0 .578-.316.715-.548.24-.41.328-.41.568 0 .137.231.323.548.716.548.394 0 .581-.316.717-.548.244-.41.33-.41.574 0 .136.231.322.548.716.548a.25.25 0 0 0 0-.5zM41.086 32.362a.77.77 0 1 0 1.54-.003.77.77 0 0 0-1.54.003zm1.038 0a.27.27 0 0 1-.539 0 .27.27 0 1 1 .539 0z"/><path fill="#DBE9E9" d="M10.784 32.008l-1.847 1.85a.5.5 0 1 0 .708.707l1.847-1.85a.5.5 0 1 0-.708-.707zM14.962 42.848l-1.847 1.85a.5.5 0 1 0 .708.707l1.847-1.85a.5.5 0 1 0-.708-.707zM36.277 8.087a.502.502 0 0 0 .354-.146l1.847-1.85a.501.501 0 0 0-.707-.708l-1.847 1.85a.502.502 0 0 0 .353.854z"/><circle fill="#DBE9E9" cx="16.316" cy="42.202" r=".508"/><circle fill="#DBE9E9" cx="12.138" cy="31.362" r=".508"/><circle fill="#DBE9E9" cx="35.277" cy="8.587" r=".509"/><path fill="#EEF0F0" d="M19.352 41.692h1.031v.5h-1.031zM20.508 40.536h.5v1.055h-.5zM20.508 42.317h.5v1.055h-.5zM21.133 41.692h1.031v.5h-1.031zM6.994 25.238h1.031v.5H6.994zM8.15 24.081h.5v1.055h-.5zM8.15 25.863h.5v1.054h-.5zM8.775 25.238h1.031v.5H8.775zM45.338 28.073h1.031v.5h-1.031zM46.494 26.917h.5v1.055h-.5zM46.494 28.698h.5v1.055h-.5zM47.119 28.073h1.031v.5h-1.031zM26.369 1.987h.5v.485h.688v-.5h-.688v-.688h-.5v.688h-.687v.5h.687zM26.369 2.472h.5v.703h-.5zM2.494 18.266h.5v.484h.688v-.5h-.688v-.688h-.5v.688h-.687v.5h.687zM2.494 18.75h.5v.703h-.5zM46.869 18.506h.5v.484h.688v-.5h-.688v-.687h-.5v.687h-.687v.5h.687z"/><path fill="#EEF0F0" d="M46.869 18.99h.5v.703h-.5zM28.236 45.961a1.275 1.275 0 1 0 1.277 1.277 1.279 1.279 0 0 0-1.277-1.277zm0 2.051a.774.774 0 1 1 .777-.773.774.774 0 0 1-.777.773zM41.854 24.857c.704 0 1.277-.571 1.277-1.272 0-.704-.573-1.277-1.277-1.277-.703 0-1.274.573-1.274 1.277a1.272 1.272 0 0 0 1.274 1.272zm0-2.049a.775.775 0 1 1 0 0zM29.262 8.691c.704 0 1.277-.571 1.277-1.272 0-.704-.573-1.277-1.277-1.277-.703 0-1.274.573-1.274 1.277a1.273 1.273 0 0 0 1.274 1.272zm0-2.049a.775.775 0 1 1 0 0zM3.681 33.12a.77.77 0 0 0 0 1.538.77.77 0 0 0 .77-.768.771.771 0 0 0-.77-.77zm0 1.037a.269.269 0 1 1 0-.538.269.269 0 0 1 0 .538zM46.106 13.984a.77.77 0 1 0 0 0zm-.769.268a.269.269 0 1 1 0-.538.269.269 0 0 1 0 .538z"/><path fill="#DBE9E9" d="M37.016 29.579l-1.847 1.85a.5.5 0 0 0 .708.707l1.847-1.85a.5.5 0 0 0-.708-.707z"/><circle fill="#DBE9E9" cx="38.369" cy="28.932" r=".509"/><path fill="#E9D8E0" d="M37.929 12.837c0 .148.036.289.097.414l-.001.001.633 1.628.001.001a.23.23 0 0 0 .2.157l.02.001.014-.001a.231.231 0 0 0 .207-.157v-.001l.633-1.628-.001-.001a.94.94 0 0 0-.077-.962.95.95 0 0 0-1.726.548zm.63-.097a.33.33 0 1 1 .315.426.33.33 0 0 1-.315-.426zM10.201 40.417a.947.947 0 0 0-1.538-.019.944.944 0 0 0-.091.98l-.001.002.633 1.627.001.002a.231.231 0 0 0 .2.156l.02.002c.005 0 .009 0 .014-.002a.229.229 0 0 0 .207-.156l.001-.002.633-1.627-.001-.002a.93.93 0 0 0-.078-.961zm-.698.865a.29.29 0 0 1-.171-.002.33.33 0 0 1-.226-.412.33.33 0 0 1 .644.096.327.327 0 0 1-.247.318zM8.399 18.933a.946.946 0 0 0-.852 1.363l-.001.001.633 1.628.001.001a.23.23 0 0 0 .2.157l.02.001.014-.001a.231.231 0 0 0 .207-.157l.001-.001.633-1.628-.001-.001a.94.94 0 0 0-.077-.962.953.953 0 0 0-.778-.401zm.079 1.267a.33.33 0 0 1-.171-.002.33.33 0 0 1-.226-.413.33.33 0 1 1 .397.415z"/><path fill="#EEF0F0" d="M29.713 41.869c-.097 0-.165-.097-.285-.302-.137-.231-.324-.548-.718-.548s-.581.316-.717.548c-.242.408-.33.412-.571 0-.137-.231-.323-.548-.716-.548-.394 0-.579.317-.716.549-.239.405-.324.41-.564 0-.135-.231-.321-.549-.713-.549a.25.25 0 0 0 0 .5c.095 0 .162.097.281.301.135.231.321.549.713.549.393 0 .578-.316.715-.548.24-.41.328-.41.568 0 .137.231.323.548.716.548.394 0 .581-.316.717-.548.244-.41.33-.41.574 0 .136.231.322.548.716.548a.25.25 0 0 0 0-.5zM5.838 28.498c-.097 0-.165-.097-.286-.302-.137-.231-.323-.548-.717-.548-.394 0-.581.316-.717.548-.241.408-.329.412-.571 0-.136-.231-.322-.548-.715-.548s-.58.317-.715.549c-.24.405-.325.41-.565 0-.135-.231-.321-.549-.713-.549a.25.25 0 0 0 0 .5c.095 0 .162.097.281.301.135.231.321.549.713.549.393 0 .579-.316.714-.548.241-.41.328-.41.569 0 .136.231.322.548.715.548.394 0 .581-.316.717-.548.242-.41.331-.41.573 0 .136.231.323.548.716.548a.25.25 0 0 0 .001-.5zM23.569 8.186a.77.77 0 1 0 0-1.54.77.77 0 0 0 0 1.54zm0-1.038a.27.27 0 0 1 .27.27.27.27 0 0 1-.539 0 .271.271 0 0 1 .269-.27z"/><path fill="#DBE9E9" d="M17.303 4.236a.502.502 0 0 0 .354-.146l1.847-1.85a.5.5 0 0 0-.708-.708l-1.847 1.85a.5.5 0 0 0 .354.854z"/><circle fill="#DBE9E9" cx="16.303" cy="4.736" r=".508"/><path fill="#E9D8E0" d="M37.053 42.198a.95.95 0 0 0-1.726.549c0 .148.036.289.097.414h-.001l.633 1.629h.001a.23.23 0 0 0 .2.158h.034a.233.233 0 0 0 .207-.158h.001l.633-1.629h-.002a.949.949 0 0 0-.077-.963zm-.699.867a.32.32 0 0 1-.171-.002.33.33 0 1 1 .171.002z"/><path fill="#219597" d="M24.263 29.112a4.329 4.329 0 1 0 0-8.66 4.329 4.329 0 0 0 0 8.66zm-2.237-3.987a.5.5 0 0 1 .707 0l.969.97 2.292-3.042a.5.5 0 0 1 .799.601l-2.639 3.502a.498.498 0 0 1-.365.198l-.035.001a.505.505 0 0 1-.354-.146l-1.376-1.377a.502.502 0 0 1 .002-.707z"/><path fill="#FFF" d="M23.402 27.209a.5.5 0 0 0 .354.146l.035-.001a.503.503 0 0 0 .365-.198l2.639-3.502a.5.5 0 1 0-.799-.601l-2.292 3.042-.969-.97a.5.5 0 0 0-.707.707l1.374 1.377z"/><path fill="#EEF0F0" d="M22.404 16.948c-.309 0-.558-.22-.558-.491s.249-.489.558-.489h-.63a.49.49 0 0 1 0-.98h4.897a.49.49 0 0 1 0 .98h1.33c.308 0 .558.218.558.489s-.25.491-.558.491h3.077v-1.47a1.47 1.47 0 0 0-1.47-1.468h-9.443c-1.545 0-2.798 1.098-2.798 2.447v.491h5.037zM24.255 35.557a.87.87 0 0 1-.173-.492c0-.01.006-.018.006-.027a.969.969 0 0 1-.845-.95.98.98 0 0 1 1.96 0c.619.001 1.119.438 1.119.978a.868.868 0 0 1-.173.492h3.459c.811 0 1.47-.66 1.47-1.47v-1.471H17.368v1.471c0 .81.657 1.47 1.469 1.47h5.418z"/><path fill="#EEF0F0" d="M31.818 14.439c.149.316.239.666.239 1.039v18.609a2.45 2.45 0 0 1-2.448 2.447H18.837c-.396 0-.765-.104-1.096-.271.48.743 1.381 1.251 2.425 1.251H30.24c1.543 0 2.798-1.1 2.798-2.45V16.458c0-.838-.484-1.578-1.22-2.019z"/><path fill="#EEF0F0" d="M18.487 18.907h12.592v-.98H17.368v13.712h1.119z"/><path d="M29.609 36.535a2.45 2.45 0 0 0 2.448-2.447v-18.61c0-.373-.09-.723-.239-1.039a2.446 2.446 0 0 0-2.209-1.409H18.837a2.45 2.45 0 0 0-2.449 2.448v18.609a2.44 2.44 0 0 0 1.354 2.177c.331.167.7.271 1.096.271h10.771zM17.368 17.927h13.711v13.712H17.368V17.927zm0-2.449c0-.811.657-1.468 1.469-1.468h10.772c.811 0 1.47.657 1.47 1.468v1.47H17.368v-1.47zm0 18.609v-1.471h13.711v1.471c0 .81-.659 1.47-1.47 1.47H18.837a1.47 1.47 0 0 1-1.469-1.47z"/><path d="M27.161 15.478a.49.49 0 0 0-.489-.49h-4.897a.49.49 0 0 0 0 .98h4.898a.49.49 0 0 0 .488-.49zM25.204 34.087a.98.98 0 0 0-1.96 0c0 .489.371.882.845.95.046.007.086.027.134.027a.98.98 0 0 0 .981-.977z"/></svg>
