<svg xmlns="http://www.w3.org/2000/svg" width="49.955" height="49.956" viewBox="0 0 49.955 49.956"><path fill="none" d="M9.791 20.129l-3.193 3.195 4.092 4.25-.3-.771.002-.004a1.727 1.727 0 0 1-.175-.75 1.716 1.716 0 0 1 1.717-1.716c.58 0 1.095.285 1.405.729.082.115.14.247.191.38l.895-1.009-4.634-4.304zM15.604 25.53l-2.9 3.268-.241.617 3.064 3.184 2.128-2.129a9.16 9.16 0 0 1-2.046-4.934l-.005-.006zM14.005 15.917l-3.645 3.644 4.6 4.272.762-.86a9.153 9.153 0 0 1 1.604-3.734l-3.321-3.322zM30.269 47.139h.484v.5h-.484zM35.932 21.165a1.718 1.718 0 0 1-.175-.748c0-.314.102-.6.25-.854l-2.584-2.583-1.669 1.669c.19.221.369.452.538.691a9.162 9.162 0 0 1 2.277 5.252l1.981-1.825-.621-1.597.003-.005zM30.179 32.09l-.013-.012a9.148 9.148 0 0 1-.938.606c.332-.175.647-.376.951-.594zM37.874 24.118a.414.414 0 0 1-.375.281c-.009.004-.017.004-.025.004-.012 0-.024-.004-.035-.004a.408.408 0 0 1-.202-.079l-2.652 2.442 4.252 3.766 4.069-4.068-3.831-3.832-.968.891-.231.595-.002.004zM30.801 31.576l.011.011c.342-.301.663-.624.951-.978a9.343 9.343 0 0 1-.962.967zM6.268 36.139h.484v.5h-.484z"/><circle fill="none" cx="33.745" cy="8.214" r=".269"/><circle fill="none" cx="22.86" cy="2.076" r=".269"/><path fill="none" d="M30.509 2.763h.484v.5h-.484z"/><circle fill="none" cx="15.37" cy="3.95" r=".269"/><path fill="none" d="M38.062 20.417a.597.597 0 0 0-.594-.594c-.019 0-.035.007-.054.009l.64.639c.001-.019.008-.035.008-.054zM22.053 15.835l4.807-5.419-3.678-3.678-8.609 8.609 3.256 3.256a9.239 9.239 0 0 1 4.224-2.768zM38.495 15.704h.484v.5h-.484zM30.607 17.518l1.678-1.677-4.286-4.286-3.441 3.881c.072-.001.142-.011.214-.011 2.213 0 4.247.786 5.835 2.093zM37.306 20.989a.662.662 0 0 0 .151.024l-.585-.585a.598.598 0 0 0 .434.561zM25.014 35.575l-3.508 3.23 4.441 4.613 3.356-3.357-.127-.326z"/><circle fill="none" cx="34.274" cy="41.607" r=".269"/><path fill="none" d="M29.705 37.377a.529.529 0 0 0 .309.004.59.59 0 0 0 .425-.734.596.596 0 0 0-1.169.158c0 .272.185.502.435.572zM31.519 32.293l2.776 2.775 3.972-3.971-3.93-3.479a9.196 9.196 0 0 1-2.818 4.675zM46.788 26.639h.484v.5h-.484z"/><path fill="none" d="M30.892 32.804a9.14 9.14 0 0 1-4.822 1.798l-.463.426 2.845 2.845-.122-.313.002-.004a1.727 1.727 0 0 1-.175-.75 1.716 1.716 0 0 1 1.717-1.716c.58 0 1.095.285 1.405.729a1.704 1.704 0 0 1 .14 1.738l.001.004-.246.631 2.553-2.553-2.835-2.835zM11.766 26.622a.529.529 0 0 0 .309.004.59.59 0 0 0 .425-.734.596.596 0 0 0-1.169.158.597.597 0 0 0 .435.572zM18.692 31.709l-2.048 2.049 3.744 3.887 3.431-3.156a9.185 9.185 0 0 1-5.127-2.78z"/><circle fill="none" cx="2.021" cy="28.507" r=".776"/><path fill="#EEF0F0" d="M33.745 8.983a.77.77 0 1 0 0-1.54.77.77 0 0 0 0 1.54zm0-1.038a.27.27 0 0 1 .27.269.27.27 0 1 1-.27-.269zM37.792 15.704h.703v.5h-.703z"/><path fill="#EEF0F0" d="M38.995 16.891v-.687h.688v-.5h-.688v-.688h-.5v.688h.484v.5h-.484v.687zM37.854 10.228c.069-.068.184-.048.416.011.125.032.271.07.422.07a.642.642 0 0 0 .473-.189c.278-.278.187-.635.119-.895-.059-.231-.079-.348-.011-.417.07-.069.185-.048.415.012.26.067.615.159.894-.118.277-.278.185-.634.117-.894-.06-.23-.081-.347-.013-.415.068-.067.186-.045.412.014.26.069.613.163.893-.115a.25.25 0 1 0-.354-.354c-.065.066-.181.046-.412-.015-.259-.069-.615-.161-.893.116-.278.278-.186.634-.118.894.061.23.081.346.014.414-.069.069-.185.047-.415-.012-.26-.067-.615-.159-.894.118-.278.281-.187.637-.119.897.059.231.079.348.011.417s-.184.048-.416-.011c-.26-.067-.615-.16-.895.119a.25.25 0 1 0 .354.353zM13.393 39.962c-.065.068-.181.046-.412-.015-.26-.066-.615-.162-.893.116-.277.278-.185.634-.117.894.06.231.081.347.013.415-.069.067-.185.047-.415-.013-.26-.067-.616-.16-.895.118-.278.279-.186.635-.119.895.06.23.08.347.011.416-.067.069-.184.049-.417-.011-.259-.067-.615-.159-.894.118a.25.25 0 1 0 .354.354c.067-.066.183-.048.415.012.125.032.272.07.422.07a.639.639 0 0 0 .474-.189c.278-.279.186-.635.119-.895-.06-.23-.08-.347-.011-.416.068-.068.185-.049.415.013.26.067.616.159.895-.118.277-.278.185-.634.117-.894-.06-.231-.081-.347-.013-.415.067-.067.182-.046.412.015.259.067.616.161.893-.116a.25.25 0 1 0-.354-.354z"/><path fill="#DBE9E9" d="M5.704 15.939a.502.502 0 0 0 .708-.001.5.5 0 0 0 0-.707l-1.85-1.847a.502.502 0 0 0-.708.708l1.85 1.847zM44.026 32.194a.5.5 0 0 0-.707.707l1.85 1.846a.498.498 0 0 0 .708 0 .5.5 0 0 0 0-.707l-1.851-1.846z"/><circle fill="#DBE9E9" cx="7.058" cy="16.585" r=".509"/><circle fill="#DBE9E9" cx="42.673" cy="31.546" r=".509"/><path fill="#EEF0F0" d="M20.687 45.608h.5v1.031h-.5zM21.288 46.764h1.055v.5h-1.055zM19.507 46.764h1.055v.5h-1.055zM20.687 47.389h.5v1.031h-.5zM47.288 26.639v-.687h-.5v.687h.484v.5h-.484v.688h.5v-.688h.688v-.5z"/><path fill="#EEF0F0" d="M46.085 26.639h.703v.5h-.703zM30.993 3.263h-.484v.688h.5v-.688h.687v-.5h-.687v-.687h-.5v.687h.484zM29.806 2.763h.703v.5h-.703zM30.769 46.452h-.5v.687h.484v.5h-.484v.688h.5v-.688h.687v-.5h-.687zM29.565 47.139h.703v.5h-.703zM2.021 27.231a1.275 1.275 0 1 0 .005 2.55 1.275 1.275 0 0 0-.005-2.55zm0 2.053a.776.776 0 0 1 0-1.552.777.777 0 1 1 0 1.552zM15.37 4.719a.77.77 0 1 0-.768-.77.77.77 0 0 0 .768.77zm0-1.038a.27.27 0 0 1 .27.269.27.27 0 0 1-.27.27.27.27 0 0 1 0-.539zM34.274 40.838a.77.77 0 1 0 .003 1.539.77.77 0 0 0-.003-1.539zm0 1.037a.269.269 0 1 1 .27-.27.27.27 0 0 1-.27.27zM10.809 10.39c-.231.137-.548.324-.548.717a.25.25 0 0 0 .5 0c0-.098.097-.166.302-.287.231-.137.547-.323.547-.717s-.316-.58-.547-.717c-.206-.121-.302-.189-.302-.287 0-.097.097-.164.301-.285.231-.134.548-.321.548-.714 0-.393-.317-.579-.548-.715-.205-.121-.302-.188-.302-.284 0-.094.096-.161.301-.281.232-.135.549-.32.549-.713a.25.25 0 0 0-.5 0c0 .095-.097.162-.301.281-.231.135-.548.321-.548.712 0 .393.317.579.548.715.205.122.301.189.301.285 0 .097-.097.164-.302.285-.231.136-.548.322-.548.715 0 .394.316.581.548.717.205.121.302.189.302.286s-.096.166-.301.287zM36.896 20.243a.547.547 0 0 0-.026.174l.002.011.585.585.011.001a.589.589 0 0 0 .585-.543l-.64-.639a.594.594 0 0 0-.517.411zM11.536 29.75l-.001-.004-.845-2.172-4.092-4.25 3.193-3.195 4.634 4.303-.895 1.009c.074.191.124.392.124.608a1.7 1.7 0 0 1-.175.75l.001.004-.776 1.994 2.9-3.268.006.005a9.28 9.28 0 0 1-.046-.902c0-.568.059-1.121.158-1.661l-.762.86-4.6-4.272 3.645-3.644 3.321 3.322c.159-.219.326-.431.503-.635l-3.256-3.256 8.609-8.609 3.678 3.678-4.807 5.419a9.169 9.169 0 0 1 2.504-.399l3.441-3.881 4.286 4.286-1.678 1.677a9.13 9.13 0 0 1 1.146 1.13l1.669-1.669 2.584 2.583c.032-.056.051-.12.089-.171.125-.167.286-.302.463-.415l-2.566-2.566 1.422-1.422a.805.805 0 0 0-1.138-1.138l-1.422 1.423-4.319-4.319 1.352-1.523a.805.805 0 0 0-1.204-1.07l-1.288 1.454-3.644-3.645 1.423-1.422a.803.803 0 1 0-1.137-1.138L3.556 24.09a.804.804 0 1 0 1.137 1.137l1.336-1.334 4.621 4.799-1.187 1.336a.806.806 0 0 0 .032 1.104l.035.033a.805.805 0 0 0 1.136-.068l1.019-1.147a.422.422 0 0 1-.149-.2z"/><path fill="#EEF0F0" d="M46.034 24.469a.805.805 0 0 0-1.138 0l-1.423 1.422-3.808-3.809 1.447-1.332a.803.803 0 1 0-1.09-1.184l-.841.774c.001.026.012.05.012.076 0 .268-.064.523-.175.748l.001.004-.914 2.35.968-.891 3.831 3.832-4.069 4.068-4.252-3.766 2.652-2.442a.413.413 0 0 1-.16-.202l-.001-.004-.524-1.348-1.981 1.825a9.175 9.175 0 0 0-2.277-5.252 9.163 9.163 0 0 1-.529 11.27 8.212 8.212 0 0 1-.951.978l-.011-.011a9.343 9.343 0 0 1-.635.503l.013.012a8.323 8.323 0 0 1-.951.595 9.191 9.191 0 0 1-11.571-2.216l-2.128 2.129-3.064-3.184-.129.332-.001.004a.416.416 0 0 1-.375.283c-.005.002-.01.002-.015.002l3.014 3.131-1.163 1.164a.808.808 0 0 0 0 1.137.806.806 0 0 0 1.139 0l1.143-1.141 3.721 3.863-1.081.996a.805.805 0 0 0-.047 1.137c.008.008.016.018.023.023a.8.8 0 0 0 1.113.023l1.107-1.02 4.464 4.637-.962.963a.806.806 0 0 0 0 1.139.809.809 0 0 0 1.138 0l20.481-20.48a.804.804 0 0 0-.001-1.138zM20.388 37.645l-3.744-3.887 2.048-2.049a9.179 9.179 0 0 0 5.126 2.779l-3.43 3.157zm9.886 2.857l-.001.004a.416.416 0 0 1-.375.283c-.009.004-.017.004-.025.004-.012 0-.024-.004-.035-.004a.42.42 0 0 1-.362-.283l-.001-.004-.172-.441-3.355 3.357-4.441-4.613 3.508-3.23 4.162 4.16-.725-1.862-2.845-2.845.463-.426a9.14 9.14 0 0 0 4.822-1.798l2.835 2.833-2.553 2.553-.9 2.312zm4.021-5.433l-2.776-2.775a9.205 9.205 0 0 0 2.818-4.674l3.93 3.479-3.972 3.97zM22.86 2.845a.77.77 0 1 0-.768-.77.77.77 0 0 0 .768.77zm0-1.038a.27.27 0 0 1 .27.269.27.27 0 0 1-.27.27.27.27 0 0 1 0-.539z"/><path fill="#DBE9E9" d="M45.169 17.926l1.85 1.846a.502.502 0 0 0 .708-.001.5.5 0 0 0 0-.707l-1.85-1.846a.5.5 0 0 0-.708.708z"/><circle fill="#DBE9E9" cx="44.522" cy="16.572" r=".509"/><path fill="#B35D88" d="M31.419 37.555a1.704 1.704 0 0 0-.14-1.738 1.715 1.715 0 0 0-2.947 1.737l-.002.004.122.313.725 1.862.127.326.172.441.001.004a.42.42 0 0 0 .362.283c.011 0 .023.004.035.004.009 0 .017 0 .025-.004a.416.416 0 0 0 .375-.283l.001-.004.899-2.312.246-.631-.001-.002zm-2.123-.922a.596.596 0 1 1 1.165.172.59.59 0 0 1-.447.576.544.544 0 0 1-.309-.004.598.598 0 0 1-.436-.572.578.578 0 0 1 .027-.172z"/><path fill="#FFF" d="M24.106 22.382c.429 0 .923-.226 1.165-.498a1.919 1.919 0 0 1-.209-.213c-.348.31-.866.526-1.366.569l-.018.072a1.4 1.4 0 0 0 .428.07zM24.028 21.512c.343-.112.658-.311.772-.531l.073-.141a1.753 1.753 0 0 0-.845.672zM25.353 25.082c.063 0 .123-.015.184-.023v-.26a2.05 2.05 0 0 1-.747.158c.177.075.364.125.563.125zM23.251 21.577c.405-.871 1.182-1.47 2.084-1.478a1.431 1.431 0 0 0-.564-.125c-.796 0-1.461.663-1.674 1.563.05.016.103.03.154.04zM24.691 25.61v.629c0 .137-.086.26-.216.306l-2.081.742a.925.925 0 0 0-.55.553h6.6v-.458c0-.029-.011-.057-.014-.086-.006-.002-.011-.007-.017-.009l-2.081-.742a.325.325 0 0 1-.216-.306V25.9l-.544-.194c-.074.008-.145.026-.221.026-.229 0-.448-.051-.66-.122zM27.094 23.044l-.06.006a2.83 2.83 0 0 1-.848 1.355v.402c.515-.347.871-.999.908-1.763zM23.024 22.199c0 .014.003.027.003.041l.01-.037-.013-.004zM25.251 20.76l.12.21c.305.532.614.71 1.096.65a2.473 2.473 0 0 0-.171-.526 1.51 1.51 0 0 0-.943-.347c-.035.001-.068.011-.102.013zM26.513 22.27c-.03.002-.063.008-.093.009a.798.798 0 0 0 .088.054l.005-.063zM21.783 28.49h7.242v.123h-7.242zM26.389 22.973a1.583 1.583 0 0 1-.743-.526 2.494 2.494 0 0 1-1.539.586c-.177 0-.342-.02-.501-.058.008.358.09.692.223.987.273.217.596.347.943.347.727-.001 1.352-.553 1.617-1.336zM22.175 26.675l1.866-.666v-.292l-2.228.796a.925.925 0 0 0-.611.868v.332a1.57 1.57 0 0 1 .973-1.038z"/><path fill="transparent" d="M32.979 24.633c0-4.526-3.682-8.208-8.207-8.208s-8.207 3.682-8.207 8.208c0 4.525 3.682 8.207 8.207 8.207s8.207-3.681 8.207-8.207zm-11.521 4.63a.325.325 0 0 1-.325-.325v-.448h-.581v-1.108c0-.662.419-1.256 1.042-1.48l1.866-.667v-.605a3.15 3.15 0 0 1-.165-.282c-.56-.517-.926-1.308-.926-2.206 0-1.554 1.078-2.818 2.402-2.818.877 0 1.638.56 2.058 1.386.56.516.926 1.308.926 2.206 0 .931-.392 1.751-.987 2.265v.263l1.284.459c.46.165.805.532.956.978.408.29.668.759.668 1.275v.783c0 .18-.146.325-.325.325h-7.893z"/><path d="M30.607 17.518a9.158 9.158 0 0 0-5.836-2.093c-.072 0-.142.009-.214.011-.869.02-1.71.154-2.504.399a9.227 9.227 0 0 0-4.727 3.404 9.147 9.147 0 0 0-1.604 3.734 9.187 9.187 0 0 0-.158 1.661 9.169 9.169 0 0 0 2.092 5.836 9.19 9.19 0 0 0 11.571 2.216c.326-.182.638-.388.938-.606a9.343 9.343 0 0 0 1.597-1.47 9.159 9.159 0 0 0-.009-11.961 9.07 9.07 0 0 0-1.146-1.131zM24.771 32.84c-4.525 0-8.207-3.682-8.207-8.207 0-4.526 3.682-8.208 8.207-8.208s8.207 3.682 8.207 8.208c.001 4.526-3.681 8.207-8.207 8.207z"/><path fill="#F0F0F0" d="M26.333 26.544l2.081.742c.006.002.011.007.017.009a.92.92 0 0 0-.598-.782l-1.716-.613v.339c0 .137.087.26.216.305zM22.395 27.287l2.081-.742a.325.325 0 0 0 .216-.306v-.629c.211.071.43.122.661.122.076 0 .147-.018.221-.026l-.037-.013v-.634c-.061.008-.121.023-.184.023a1.44 1.44 0 0 1-.563-.125l-.018.002c-.231 0-.45-.051-.661-.122v.856l-.069.025v.292l-1.866.666c-.48.171-.833.564-.973 1.038v.126h.643a.916.916 0 0 1 .549-.553z"/><path fill="#F0F0F0" d="M29.351 29.263c.18 0 .325-.146.325-.325v-.783c0-.517-.26-.985-.668-1.275.055.159.087.328.087.502v1.108h-.069v.123h-7.242v-.123h-.65v.448c0 .18.146.325.325.325h7.892zM23.251 21.577c.088.016.176.03.274.03.163 0 .335-.041.503-.095.221-.318.512-.553.846-.672l.202-.386.175.307c.034-.002.067-.013.102-.013.348 0 .671.13.943.347-.209-.464-.549-.82-.96-.995-.903.007-1.68.606-2.085 1.477zM23.295 24.347c.05.099.105.191.165.282v-.133c-.058-.044-.11-.099-.165-.149zM27.034 23.051l.06-.006c-.037.764-.393 1.416-.907 1.764v.426l.581.208v-.263c.596-.513.987-1.334.987-2.265 0-.897-.366-1.689-.926-2.206.214.421.345.907.345 1.432 0 .32-.056.623-.14.91zM24.106 23.033c.492 0 1.125-.217 1.539-.586.214.264.461.432.743.526.066-.199.103-.416.119-.64a.798.798 0 0 1-.088-.054c-.031.001-.066.01-.097.01-.416 0-.758-.138-1.052-.404-.242.272-.736.498-1.165.498a1.4 1.4 0 0 1-.428-.07l.018-.072c-.057.005-.115.018-.171.018a2.14 2.14 0 0 1-.488-.055l-.01.037c.027.723.337 1.353.801 1.722a2.533 2.533 0 0 1-.223-.987c.161.037.325.057.502.057z"/><path fill="#219597" d="M29.025 28.49h.069v-1.108c0-.174-.032-.343-.087-.502a1.572 1.572 0 0 0-.956-.978l-1.284-.459-.581-.208V24.407a2.83 2.83 0 0 0 .848-1.355c.084-.287.14-.59.14-.91 0-.525-.131-1.011-.345-1.432-.42-.826-1.181-1.386-2.058-1.386-1.325 0-2.402 1.264-2.402 2.818 0 .898.367 1.689.926 2.206.055.05.106.104.165.149v.738l-1.866.667a1.575 1.575 0 0 0-1.042 1.48v1.108H29.025zm-5.197-4.529c-.463-.369-.773-.999-.801-1.722 0-.014-.003-.027-.003-.041l.013.003c.155.036.316.055.488.055.056 0 .114-.013.171-.018.5-.043 1.019-.259 1.366-.569.066.082.137.148.209.213a1.5 1.5 0 0 0 1.052.404c.03 0 .065-.008.097-.01.029-.001.062-.006.093-.009a2.687 2.687 0 0 1-.124.702c-.265.783-.89 1.335-1.617 1.335a1.48 1.48 0 0 1-.944-.343zm.943-3.987c.198 0 .386.05.564.125.412.175.751.531.96.995.074.165.133.339.171.526-.481.06-.791-.118-1.096-.65l-.12-.21-.175-.307-.202.386-.073.141c-.115.22-.43.418-.772.531-.168.055-.34.095-.503.095a1.493 1.493 0 0 1-.428-.07c.214-.899.879-1.562 1.674-1.562zm-3.569 7.739v-.332c0-.388.246-.736.611-.868l2.228-.796.069-.025v-.856c.211.071.43.122.661.122l.018-.002a2.05 2.05 0 0 0 .747-.158v.894l.037.013.544.194 1.716.613a.923.923 0 0 1 .598.782c.003.029.014.057.014.086v.458H21.202v-.125z"/><path fill="#B35D88" d="M12.334 29.75l.001-.004.129-.332.241-.617.776-1.994-.001-.004c.11-.227.175-.48.175-.75 0-.216-.05-.417-.124-.608a1.713 1.713 0 0 0-.191-.38 1.715 1.715 0 0 0-2.947 1.737l-.002.004.3.771.845 2.172.001.004c.027.08.081.147.148.198a.413.413 0 0 0 .214.085c.011 0 .023.004.035.004a.036.036 0 0 0 .01-.002c.005 0 .01 0 .015-.002a.411.411 0 0 0 .375-.282zm-.978-3.873a.596.596 0 1 1 1.165.172.59.59 0 0 1-.447.576.544.544 0 0 1-.309-.004.598.598 0 0 1-.436-.572.612.612 0 0 1 .027-.172zM36.096 19.391c-.038.051-.057.116-.089.171-.148.254-.25.541-.25.854 0 .268.065.523.175.748l-.002.004.621 1.597.524 1.348.001.004a.413.413 0 0 0 .16.202.412.412 0 0 0 .202.079c.011 0 .023.004.035.004.009 0 .017 0 .025-.004a.414.414 0 0 0 .375-.281l.001-.004.231-.595.914-2.35-.001-.004c.11-.225.175-.48.175-.748 0-.026-.011-.05-.012-.076a1.72 1.72 0 0 0-.304-.915 1.717 1.717 0 0 0-1.405-.729c-.339 0-.648.108-.915.278a1.764 1.764 0 0 0-.461.417zm1.372.432a.597.597 0 0 1 .594.594c0 .019-.008.036-.009.054a.589.589 0 0 1-.585.543l-.011-.001a.604.604 0 0 1-.585-.586l-.002-.011a.592.592 0 0 1 .544-.585c.019-.001.035-.008.054-.008z"/><path fill="#EEF0F0" d="M39.629 38.82c.231-.136.549-.321.549-.714a.25.25 0 0 0-.5 0c0 .096-.097.162-.302.282-.231.136-.548.32-.548.712 0 .393.316.579.548.716.205.12.302.188.302.284s-.097.164-.302.284c-.231.137-.548.323-.548.716 0 .394.316.581.548.717.205.122.302.189.302.287 0 .097-.097.164-.301.284-.231.137-.549.324-.549.718a.25.25 0 0 0 .5 0c0-.098.097-.165.303-.287.23-.136.547-.322.547-.715 0-.394-.316-.581-.548-.717-.205-.122-.302-.189-.302-.287 0-.097.097-.164.302-.284.231-.137.548-.323.548-.716s-.316-.579-.548-.716c-.205-.12-.302-.188-.302-.284 0-.094.097-.161.301-.28zM6.768 35.452h-.5v.687h.484v.5h-.484v.688h.5v-.688h.687v-.5h-.687zM5.564 36.139h.703v.5h-.703z"/></svg>
